<svg width="32" height="31" viewBox="0 0 32 31" fill="none" xmlns="http://www.w3.org/2000/svg">
<path d="M15.989 29.574C23.8458 29.574 30.215 23.2045 30.215 15.3474C30.215 7.4903 23.8458 1.12085 15.989 1.12085C8.13214 1.12085 1.76294 7.4903 1.76294 15.3474C1.76294 23.2045 8.13214 29.574 15.989 29.574Z" stroke="white" stroke-width="2" stroke-miterlimit="10" stroke-linejoin="round"/>
<path d="M25.4729 25.7803C25.4729 20.5421 21.2269 16.2959 15.9889 16.2959C10.7509 16.2959 6.50488 20.5421 6.50488 25.7803" stroke="white" stroke-width="2" stroke-miterlimit="10" stroke-linejoin="round"/>
<path d="M15.989 16.2958C19.1317 16.2958 21.6794 13.748 21.6794 10.6052C21.6794 7.46233 19.1317 4.91455 15.989 4.91455C12.8463 4.91455 10.2986 7.46233 10.2986 10.6052C10.2986 13.748 12.8463 16.2958 15.989 16.2958Z" stroke="white" stroke-width="2" stroke-miterlimit="10" stroke-linejoin="round"/>
</svg>
